<?xml version="1.0" standalone="no"?>
<!DOCTYPE svg PUBLIC "-//W3C//DTD SVG 20010904//EN"
 "http://www.w3.org/TR/2001/REC-SVG-20010904/DTD/svg10.dtd">
<svg version="1.0" xmlns="http://www.w3.org/2000/svg"
 width="512.000000pt" height="512.000000pt" viewBox="0 0 512.000000 512.000000"
 preserveAspectRatio="xMidYMid meet">
<metadata>
Created by potrace 1.16, written by Peter Selinger 2001-2019
</metadata>
<g transform="translate(0.000000,512.000000) scale(0.100000,-0.100000)"
fill="#000000" stroke="none">
<path d="M2450 4188 c1 -117 1 -218 1 -224 -1 -7 -35 -14 -86 -18 -370 -28
-745 -237 -987 -549 -159 -206 -269 -471 -295 -712 l-8 -70 -205 -6 c-113 -3
-213 -7 -222 -8 -15 -1 -18 -11 -18 -66 l0 -65 220 0 220 0 4 -22 c3 -13 7
-54 11 -93 29 -336 221 -690 502 -925 245 -205 482 -302 818 -338 l70 -7 7
-195 c5 -107 10 -200 12 -207 3 -8 25 -11 63 -10 l58 3 3 205 2 206 66 7 c333
34 638 179 874 416 246 246 391 555 416 884 l7 86 62 0 c34 0 130 3 213 7
l152 6 0 64 c0 43 -4 63 -12 64 -7 1 -103 2 -213 2 l-199 2 -7 35 c-4 19 -15
75 -24 124 -62 332 -240 625 -520 858 -40 34 -189 130 -243 157 -143 72 -351
135 -487 146 -38 4 -80 8 -92 11 l-23 4 0 220 0 220 -71 0 -70 0 1 -212z m8
-626 c2 -197 0 -253 -10 -256 -7 -2 -51 -10 -97 -19 -98 -19 -229 -80 -296
-139 l-45 -40 -86 67 c-74 59 -88 66 -100 53 -13 -12 -5 -25 58 -97 51 -59 69
-87 62 -96 -5 -7 -31 -43 -58 -80 -51 -69 -100 -177 -116 -255 -6 -25 -12 -55
-15 -67 l-5 -23 -266 0 c-224 0 -265 2 -270 15 -3 8 4 59 15 114 58 271 170
485 354 678 203 212 421 331 702 383 55 10 116 18 135 17 l35 -2 3 -253z m367
226 c167 -41 282 -89 405 -169 232 -150 408 -358 515 -610 42 -97 83 -252 87
-329 l3 -55 -262 -3 -263 -2 -5 27 c-13 65 -59 201 -83 243 -14 25 -43 69 -65
98 -27 36 -37 56 -30 65 5 6 35 44 66 83 32 39 57 76 57 82 0 24 -23 22 -57
-5 -103 -80 -134 -103 -141 -103 -5 0 -35 20 -67 46 -75 57 -182 109 -271 130
-38 9 -80 19 -94 23 l-25 6 -3 240 c-1 132 0 246 3 253 6 17 119 8 230 -20z
m-363 -530 c1 -2 4 -92 7 -202 l6 -198 60 -1 60 -1 0 196 c0 108 3 200 8 204
10 10 114 -11 183 -37 57 -21 190 -104 213 -133 13 -16 3 -29 -115 -146 -71
-71 -130 -135 -131 -142 -1 -7 11 -24 27 -36 l30 -24 50 42 c27 23 88 83 136
133 l86 92 37 -42 c65 -73 141 -242 141 -314 l0 -27 -189 -3 c-104 -2 -191 -6
-193 -9 -2 -3 -2 -33 0 -68 l4 -63 181 1 c100 0 188 1 196 0 26 0 -6 -159 -52
-260 -24 -53 -95 -160 -105 -160 -4 0 -69 61 -146 136 l-139 136 -36 -37 -36
-37 138 -131 c75 -73 137 -137 137 -143 0 -16 -107 -93 -175 -125 -73 -35
-215 -73 -227 -61 -5 5 -12 97 -15 204 l-6 195 -61 -2 -61 -2 -2 -189 c-1
-104 -2 -195 -3 -202 0 -9 -10 -11 -37 -7 -63 11 -175 46 -223 70 -61 31 -150
97 -150 112 0 7 59 69 130 139 72 70 130 132 130 139 0 6 -14 24 -30 40 l-31
29 -137 -137 c-75 -75 -142 -137 -147 -137 -18 0 -75 82 -115 165 -38 78 -76
225 -66 252 4 10 48 13 203 13 l198 0 1 65 2 65 -199 0 -199 0 0 24 c0 34 38
152 67 210 31 62 102 156 116 156 6 0 70 -58 142 -130 73 -71 136 -130 141
-130 6 0 23 14 40 31 l29 31 -143 139 c-79 76 -141 143 -137 149 9 14 111 83
162 108 71 36 232 75 245 60z m1376 -822 c7 -112 -64 -363 -145 -516 -197
-369 -555 -622 -967 -682 -45 -6 -90 -9 -99 -5 -15 6 -17 32 -17 257 0 192 3
251 13 254 6 2 37 9 67 16 101 22 194 63 288 127 51 35 95 63 97 63 2 0 42
-31 88 -69 62 -51 88 -66 96 -58 21 21 22 20 -82 140 l-48 56 39 53 c73 98
124 226 138 347 l7 60 131 4 c72 1 190 3 261 2 l130 0 3 -49z m-2076 -56 c22
-108 78 -237 138 -317 22 -28 40 -55 40 -59 0 -4 -26 -37 -57 -73 -96 -111
-89 -100 -72 -116 13 -13 25 -6 99 55 47 39 89 70 95 70 6 0 35 -19 65 -42 79
-59 209 -117 303 -135 45 -9 88 -17 95 -19 9 -3 12 -63 12 -259 l0 -255 -59 0
c-78 0 -253 34 -344 67 -296 106 -528 301 -698 585 -87 146 -155 362 -161 513
l-3 70 165 6 c91 3 210 5 264 5 l99 -1 19 -95z"/>
</g>
</svg>
